<svg width="33" height="32" viewBox="0 0 33 32" fill="none" xmlns="http://www.w3.org/2000/svg">
<path d="M4.51331 14.96V20.9466C4.51331 26.9333 6.91331 29.3333 12.9 29.3333H20.0866C26.0733 29.3333 28.4733 26.9333 28.4733 20.9466V14.96" stroke="#2B2B2B" stroke-width="1.5" stroke-linecap="round" stroke-linejoin="round"/>
<path d="M16.5 16.0001C18.94 16.0001 20.74 14.0134 20.5 11.5734L19.62 2.66675H13.3933L12.5 11.5734C12.26 14.0134 14.06 16.0001 16.5 16.0001Z" stroke="#2B2B2B" stroke-width="1.5" stroke-linecap="round" stroke-linejoin="round"/>
<path d="M24.9133 16.0001C27.6066 16.0001 29.58 13.8134 29.3133 11.1334L28.94 7.46675C28.46 4.00008 27.1267 2.66675 23.6333 2.66675H19.5667L20.5 12.0134C20.7267 14.2134 22.7133 16.0001 24.9133 16.0001Z" stroke="#2B2B2B" stroke-width="1.5" stroke-linecap="round" stroke-linejoin="round"/>
<path d="M8.01997 16.0001C10.22 16.0001 12.2066 14.2134 12.42 12.0134L12.7133 9.06675L13.3533 2.66675H9.28663C5.7933 2.66675 4.45997 4.00008 3.97997 7.46675L3.61997 11.1334C3.3533 13.8134 5.32663 16.0001 8.01997 16.0001Z" stroke="#2B2B2B" stroke-width="1.5" stroke-linecap="round" stroke-linejoin="round"/>
<path d="M16.5 22.6667C14.2733 22.6667 13.1666 23.7734 13.1666 26.0001V29.3334H19.8333V26.0001C19.8333 23.7734 18.7266 22.6667 16.5 22.6667Z" stroke="#2B2B2B" stroke-width="1.5" stroke-linecap="round" stroke-linejoin="round"/>
</svg>
