<svg width="33" height="32" viewBox="0 0 33 32" fill="none" xmlns="http://www.w3.org/2000/svg">
<path d="M3.16675 2.66675H5.48676C6.92676 2.66675 8.06008 3.90675 7.94008 5.33341L6.83341 18.6134C6.64675 20.7867 8.36674 22.6534 10.5534 22.6534H24.7534C26.6734 22.6534 28.3534 21.0801 28.5001 19.1734L29.2201 9.17342C29.3801 6.96009 27.7001 5.16007 25.4734 5.16007H8.26009" stroke="#2B2B2B" stroke-width="1.5" stroke-miterlimit="10" stroke-linecap="round" stroke-linejoin="round"/>
<path d="M22.1667 29.3333C23.0871 29.3333 23.8333 28.5871 23.8333 27.6667C23.8333 26.7462 23.0871 26 22.1667 26C21.2462 26 20.5 26.7462 20.5 27.6667C20.5 28.5871 21.2462 29.3333 22.1667 29.3333Z" stroke="#2B2B2B" stroke-width="1.5" stroke-miterlimit="10" stroke-linecap="round" stroke-linejoin="round"/>
<path d="M11.4999 29.3333C12.4204 29.3333 13.1666 28.5871 13.1666 27.6667C13.1666 26.7462 12.4204 26 11.4999 26C10.5794 26 9.83325 26.7462 9.83325 27.6667C9.83325 28.5871 10.5794 29.3333 11.4999 29.3333Z" stroke="#2B2B2B" stroke-width="1.5" stroke-miterlimit="10" stroke-linecap="round" stroke-linejoin="round"/>
<path d="M12.5 10.6667H28.5" stroke="#2B2B2B" stroke-width="1.5" stroke-miterlimit="10" stroke-linecap="round" stroke-linejoin="round"/>
</svg>
